<svg width="81" height="81" viewBox="0 0 81 81" fill="none" xmlns="http://www.w3.org/2000/svg">
<g clip-path="url(#clip0_688_2)">
<path d="M72.5 8.475C61.2 -2.825 19.9 -2.825 8.6 8.475C-2.7 19.775 -2.7 61.075 8.6 72.375C19.9 83.675 61.2 83.675 72.5 72.375C83.8 61.075 83.8 19.775 72.5 8.475Z" fill="black"/>
<path fill-rule="evenodd" clip-rule="evenodd" d="M42.9916 20.4674C41.8842 18.5109 39.1159 18.5109 38.0085 20.4674L20.3897 51.5977C19.2824 53.5543 20.6666 56 22.8813 56H58.119C60.3333 56 61.7176 53.5543 60.6103 51.5977L42.9916 20.4674ZM42.6403 29.9419C41.6932 28.2539 39.3069 28.2539 38.3598 29.9419L29.1064 46.4339C27.7527 48.8465 30.6694 51.3861 32.7925 49.6435L38.9541 44.5861C39.8568 43.8452 41.1433 43.8452 42.0459 44.5861L48.2076 49.6435C50.3307 51.3861 53.2473 48.8465 51.8936 46.4339L42.6403 29.9419Z" fill="white"/>
</g>
<defs>
<clipPath id="clip0_688_2">
<rect width="81" height="81" fill="white"/>
</clipPath>
</defs>
</svg>
