<?xml version="1.0" encoding="UTF-8"?>
<svg width="81" height="81" viewBox="0 0 81 81" fill="none" xmlns="http://www.w3.org/2000/svg">
<path d="M72.5 8.475C61.2 -2.825 19.9 -2.825 8.6 8.475C-2.7 19.775 -2.7 61.075 8.6 72.375C19.9 83.675 61.2 83.675 72.5 72.375C83.8 61.075 83.8 19.775 72.5 8.475Z" fill="#0166E1"/>
<path d="M53.5016 27.475H27.6016C27.6016 21.975 32.1015 17.475 37.6015 17.475H53.6015V27.475H53.5016Z" fill="white"/>
<path d="M27.5 53.375V27.475C22 27.475 17.5 31.975 17.5 37.475V53.475H27.5V53.375Z" fill="white"/>
<path d="M27.4984 53.375H53.3985C53.3985 58.875 48.8985 63.375 43.3985 63.375H27.3984V53.375H27.4984Z" fill="white"/>
<path d="M53.5 27.475V53.375C59 53.375 63.5 48.875 63.5 43.375V27.375H53.5V27.475Z" fill="white"/>
</svg>
