<svg width="307" height="81" viewBox="0 0 307 81" fill="none" xmlns="http://www.w3.org/2000/svg">
<path d="M72.5 8.475C61.2 -2.825 19.9 -2.825 8.6 8.475C-2.7 19.775 -2.7 61.075 8.6 72.375C19.9 83.675 61.2 83.675 72.5 72.375C83.8 61.075 83.8 19.775 72.5 8.475Z" fill="#0166E1"/>
<path d="M53.5016 27.475H27.6016C27.6016 21.975 32.1015 17.475 37.6015 17.475H53.6015V27.475H53.5016Z" fill="white"/>
<path d="M27.5 53.375V27.475C22 27.475 17.5 31.975 17.5 37.475V53.475H27.5V53.375Z" fill="white"/>
<path d="M27.4984 53.375H53.3985C53.3985 58.875 48.8985 63.375 43.3985 63.375H27.3984V53.375H27.4984Z" fill="white"/>
<path d="M53.5 27.475V53.375C59 53.375 63.5 48.875 63.5 43.375V27.375H53.5V27.475Z" fill="white"/>
<path d="M112.498 51.575C113.698 51.575 114.798 51.875 115.798 52.375C116.798 52.875 117.598 53.675 118.198 54.575L118.298 54.675L122.298 52.275L122.198 52.175C121.298 50.575 119.998 49.375 118.298 48.475C116.598 47.575 114.698 47.175 112.598 47.175C110.898 47.175 109.298 47.475 107.898 48.075C106.398 48.675 105.198 49.475 104.198 50.475C103.198 51.475 102.398 52.775 101.798 54.175C101.198 55.575 100.898 57.175 100.898 58.875C100.898 60.575 101.198 62.075 101.798 63.575C102.398 64.975 103.198 66.275 104.198 67.275C105.198 68.275 106.498 69.075 107.898 69.675C109.398 70.275 110.898 70.575 112.598 70.575C114.598 70.575 116.398 70.175 118.098 69.275C119.698 68.475 121.098 67.275 122.098 65.775L122.198 65.675L118.398 62.975L118.298 63.075C117.598 64.075 116.798 64.775 115.898 65.275C114.898 65.775 113.898 66.075 112.698 66.075C110.698 66.075 109.098 65.375 107.798 64.075C106.498 62.775 105.798 61.075 105.798 58.875C105.798 56.775 106.498 55.075 107.698 53.675C108.798 52.275 110.498 51.575 112.498 51.575Z" fill="black"/>
<path d="M143.597 48.675C141.797 47.675 139.797 47.175 137.497 47.175C135.797 47.175 134.197 47.475 132.797 48.075C131.297 48.675 130.097 49.475 129.097 50.475C128.097 51.475 127.297 52.775 126.697 54.175C126.097 55.575 125.797 57.175 125.797 58.775C125.797 60.375 126.097 61.975 126.697 63.375C127.297 64.775 128.097 66.075 129.097 67.075C130.097 68.075 131.397 68.875 132.797 69.475C134.297 70.075 135.797 70.375 137.497 70.375C139.697 70.375 141.797 69.875 143.597 68.875C145.397 67.875 146.797 66.475 147.797 64.675C148.797 62.875 149.297 60.875 149.297 58.675C149.297 56.475 148.797 54.475 147.797 52.675C146.797 51.075 145.397 49.675 143.597 48.675ZM137.597 65.875C135.597 65.875 133.897 65.175 132.597 63.875C131.297 62.575 130.697 60.775 130.697 58.675C130.697 56.575 131.397 54.875 132.597 53.475C133.797 52.075 135.597 51.475 137.597 51.475C139.597 51.475 141.297 52.175 142.597 53.475C143.897 54.775 144.497 56.575 144.497 58.675C144.497 60.775 143.797 62.475 142.597 63.875C141.297 65.275 139.597 65.875 137.597 65.875Z" fill="black"/>
<path d="M167.402 62.375L161.702 47.575H155.102V69.975H159.702V53.875L165.002 67.875H169.802L175.102 53.775V69.975H179.802V47.575H173.102L167.402 62.375Z" fill="black"/>
<path d="M199.003 62.375L193.403 47.575H186.703V69.975H191.303V53.875L196.603 67.875H201.503L206.703 53.775V69.975H211.403V47.575H204.703L199.003 62.375Z" fill="black"/>
<path d="M222.997 60.775H234.397V56.575H222.997V51.875H234.997V47.575H218.297V69.975H235.097V65.675H222.997V60.775Z" fill="black"/>
<path d="M257.4 58.975C258.6 57.775 259.2 56.275 259.2 54.375C259.2 52.175 258.5 50.475 257.1 49.275C255.7 48.075 253.6 47.475 251 47.475H241.5V69.975H246.1V61.175H247.2L253.7 69.975H259.3L252.5 61.075C254.6 60.875 256.2 60.175 257.4 58.975ZM246.2 51.875H251C253.4 51.875 254.5 52.675 254.5 54.475C254.5 56.275 253.3 57.075 251 57.075H246.2V51.875Z" fill="black"/>
<path d="M275.397 51.575C276.597 51.575 277.697 51.875 278.697 52.375C279.697 52.875 280.497 53.675 281.097 54.575L281.197 54.675L285.197 52.275L285.097 52.175C284.197 50.575 282.897 49.375 281.197 48.475C279.497 47.575 277.597 47.175 275.497 47.175C273.797 47.175 272.197 47.475 270.797 48.075C269.297 48.675 268.097 49.475 267.097 50.475C266.097 51.475 265.297 52.775 264.697 54.175C264.097 55.575 263.797 57.175 263.797 58.875C263.797 60.575 264.097 62.075 264.697 63.575C265.297 64.975 266.097 66.275 267.097 67.275C268.097 68.275 269.397 69.075 270.797 69.675C272.297 70.275 273.797 70.575 275.497 70.575C277.497 70.575 279.297 70.175 280.997 69.275C282.597 68.475 283.997 67.275 284.997 65.775L285.097 65.675L281.297 62.975L281.197 63.075C280.497 64.075 279.697 64.775 278.797 65.275C277.797 65.775 276.797 66.075 275.597 66.075C273.597 66.075 271.997 65.375 270.697 64.075C269.397 62.775 268.697 61.075 268.697 58.875C268.697 56.775 269.397 55.075 270.597 53.675C271.797 52.275 273.397 51.575 275.397 51.575Z" fill="black"/>
<path d="M294.897 65.675V60.775H306.397V56.575H294.897V51.875H306.897V47.575H290.297V69.975H306.997V65.675H294.897Z" fill="black"/>
<path d="M100.797 17.475H107.997V35.675H113.197V17.475H120.397V13.275H100.797V17.475Z" fill="black"/>
<path d="M142.697 22.075H132.497V13.275H127.297V35.675H132.497V26.475H142.697V35.675H147.797V13.275H142.697V22.075Z" fill="black"/>
<path d="M163.3 18.175C164.4 17.575 165.7 17.275 167.1 17.275C169.4 17.275 171.3 18.075 172.9 19.775L176.2 16.675C175.1 15.375 173.8 14.475 172.2 13.775C170.6 13.075 168.8 12.775 166.8 12.775C164.5 12.775 162.3 13.275 160.5 14.275C158.6 15.275 157.2 16.675 156.1 18.375C155 20.175 154.5 22.175 154.5 24.375C154.5 26.575 155 28.575 156.1 30.375C157.2 32.175 158.6 33.475 160.5 34.475C162.4 35.475 164.5 35.975 166.8 35.975C168.4 35.975 170 35.775 171.6 35.275C173.2 34.775 174.6 34.075 175.8 33.175V24.075H171.1V30.675C169.9 31.275 168.6 31.675 167.1 31.675C165.7 31.675 164.4 31.375 163.3 30.775C162.2 30.175 161.3 29.275 160.7 28.275C160.1 27.175 159.8 25.975 159.8 24.575C159.8 23.175 160.1 21.875 160.7 20.875C161.3 19.675 162.2 18.775 163.3 18.175Z" fill="black"/>
</svg>
